<?xml version="1.0" encoding="utf-8"?>
<!-- Generator: Adobe Illustrator 23.0.2, SVG Export Plug-In . SVG Version: 6.00 Build 0)  -->
<svg version="1.1" id="Layer_1" xmlns="http://www.w3.org/2000/svg" xmlns:xlink="http://www.w3.org/1999/xlink" x="0px" y="0px"
	 viewBox="0 0 1834.9 406.3" style="enable-background:new 0 0 1834.9 406.3;" xml:space="preserve">
<style type="text/css">
	.st0{fill:#FFFFFF;}
	.st1{fill:#EAEAEA;}
	.st2{opacity:0.13;enable-background:new    ;}
</style>
<title>big_button</title>
<g>
	<g id="main_page">
		<g id="button">
			<path class="st0" d="M288.2,80.2H1514c107.2,0,194.1,58.6,194.1,131l0,0c0,72.3-86.9,131-194.1,131H288.2
				c-107.2,0-194.1-58.6-194.1-131l0,0C94.1,138.8,181,80.2,288.2,80.2z"/>
			<path class="st1" d="M288.2,327.9c-95.5,0-172.8-52.2-172.8-116.7S192.7,94.5,288.2,94.5H1514c95.5,0,172.8,52.2,172.8,116.7
				s-77.4,116.7-172.8,116.7H288.2z"/>
			<path class="st2" d="M1709.1,211.2c-0.3,72.3-87,130.8-194.1,131H289.2c-106.7,0-194.1-58.9-194.1-131c0-0.2,0-0.5,0-0.7
				c14,63,94.9,111.6,191.9,111.6h1225.8c106.6-0.2,193.2-58.3,194-130.3C1708.4,198.3,1709.1,204.7,1709.1,211.2z"/>
		</g>
	</g>
</g>
</svg>
