<?xml version="1.0" encoding="utf-8"?>
<!-- Generator: Adobe Illustrator 23.0.2, SVG Export Plug-In . SVG Version: 6.00 Build 0)  -->
<svg version="1.1" id="Layer_1" xmlns="http://www.w3.org/2000/svg" xmlns:xlink="http://www.w3.org/1999/xlink" x="0px" y="0px"
	 viewBox="0 0 1023 1284.5" style="enable-background:new 0 0 1023 1284.5;" xml:space="preserve">
<style type="text/css">
	.st0{fill:#FFFFFF;stroke:#000000;stroke-width:3;stroke-linecap:round;stroke-linejoin:round;}
	.st1{fill:#FFFFFF;stroke:#000000;stroke-width:3;stroke-miterlimit:10;}
</style>
<g id="grup1">
	<polygon id="t21" class="st0" points="441.3,217 408,238.5 480,1.5 494.2,121.6 495,172.8 495,182.4 	"/>
</g>
<g id="grup2">
	<polygon id="t22" class="st0" points="398.3,261.8 408,238.5 495.2,182.3 499.8,439.3 487,436.5 472.6,444.3 	"/>
</g>
<g id="grup3">
	<polygon id="t23" class="st0" points="309.2,547.4 392,246.5 472.6,444.3 	"/>
</g>
<g id="grup4">
	<polygon id="t20" class="st0" points="559,249.5 631.6,475.5 500,440.5 494,120.5 	"/>
</g>
<g id="grup5">
	<polygon id="t13" class="st0" points="309.2,547.4 533.5,626.5 633.5,476 487,436.5 	"/>
</g>
<g id="grup6">
	<polygon id="t19" class="st0" points="754.8,804.7 688,368.5 633.5,476.2 	"/>
</g>
<g id="grup7">
	<polygon id="t14" class="st0" points="633.5,476.2 533.5,626.5 584.5,732.5 710.7,688.5 	"/>
</g>
<g id="grup8">
	<polygon id="t18" class="st0" points="728,629.5 849.9,710.9 882.1,865.9 844.7,935.5 754.8,804.7 	"/>
</g>
<g id="grup9">
	<polygon id="t5" class="st0" points="576.7,784.3 844.7,935.5 754.8,804.7 710.7,688.5 584.5,732.5 	"/>
</g>
<g id="grup10">
	<polygon id="t12" class="st1" points="533.5,626.5 441.5,771.5 454.5,1088.4 543.4,922.2 576.8,784.4 584.5,732.5 	"/>
</g>
<g id="grup11">
	<polygon id="t6" class="st0" points="309.2,547.4 348.8,915.8 533.5,626.5 	"/>
</g>
<g id="grup12">
	<polygon id="t24" class="st0" points="286.7,338.2 348.8,915.8 235.1,716.8 	"/>
</g>
<g id="grup13">
	<polygon id="t25" class="st0" points="286.7,338.2 149.8,567.3 235.1,716.8 	"/>
</g>
<g id="grup14">
	<polygon id="t26" class="st0" points="131.3,735.6 149.8,567.3 275.8,788 	"/>
</g>
<g id="grup15">
	<polygon id="t30" class="st1" points="109.8,929.7 131.2,735.6 275.8,788 348.8,916.2 	"/>
</g>
<g id="grup16">
	<polygon id="t11" class="st0" points="348.8,915.8 312,1180.2 246,1020.4 109.7,929.9 	"/>
</g>
<g id="grup17">
	<polygon id="t2" class="st0" points="348.8,915.8 441.5,771.5 454.7,1089.1 	"/>
</g>
<g id="grup18">
	<polygon id="t3" class="st0" points="543.4,1008.3 678.8,975.6 576.7,784.3 543.4,922.6 	"/>
</g>
<g id="grup19">
	<polygon id="t4" class="st0" points="576.7,784.3 678.8,975.6 844.7,935.5 	"/>
</g>
<g id="grup20">
	<polygon id="t8" class="st0" points="767.3,1175.4 844.7,935.5 543.4,1008.3 	"/>
</g>
<g id="grup21">
	<polygon id="t17" class="st0" points="882.1,865.9 935.5,997.3 767.3,1175.4 844.7,935.5 	"/>
</g>
<g id="grup22">
	<polygon id="t16" class="st0" points="935.5,997.3 958.5,896.5 1021.5,1281.5 857.5,1281.5 	"/>
</g>
<g id="grup23">
	<polygon id="t15" class="st0" points="857.5,1281.5 770.8,1283 767.3,1175.4 935.5,997.3 	"/>
</g>
<g id="grup24">
	<polygon id="t10" class="st0" points="676.8,1107.8 766.9,1175.2 771.3,1283 621.2,1280 	"/>
</g>
<g id="grup25">
	<polygon id="t31" class="st1" points="543.4,1009 543.4,1280 621.2,1280 676.8,1107.8 	"/>
</g>
<g id="grup26">
	<polygon id="t9" class="st0" points="353.1,1279.8 543.4,1279.8 543.4,922.6 	"/>
</g>
<g id="grup27">
	<polygon id="t7" class="st0" points="348.8,915.8 312,1180.2 353.1,1279.8 454.7,1089.1 	"/>
</g>
<g id="grup28">
	<polygon id="t27" class="st0" points="246,1020.4 353.1,1279.8 135.7,1283 	"/>
</g>
<g id="grup29">
	<polygon id="t28" class="st0" points="109.7,929.9 246,1020.4 135.7,1283 	"/>
</g>
<g id="grup30">
	<polygon id="t1" class="st0" points="1.5,1281.5 109.7,929.9 135.7,1283 	"/>
</g>
<g id="grup31">
	<polygon id="t29" class="st0" points="38.5,878.5 1.5,1281.5 109.5,929.5 	"/>
</g>
</svg>
