<svg id="Layer_1" data-name="Layer 1" xmlns="http://www.w3.org/2000/svg" viewBox="0 0 1023 1284.5">
  <title>mountain_no_dates</title>
  <g id="grup1">
    <polygon id="t21" points="442 218.5 408 238.5 480 1.5 494.2 121.6 494 172.5 494 180.5 442 218.5" style="fill: #fff;stroke: #000;stroke-linecap: round;stroke-linejoin: round;stroke-width: 3px"/>
  </g>
  <g id="grup2">
    <polygon id="t22" points="398 268.5 417 208.5 500 177.5 500 447.5 500 511.5 398 268.5" style="fill: #fff;stroke: #000;stroke-linecap: round;stroke-linejoin: round;stroke-width: 3px"/>
  </g>
  <g id="grup3">
    <polygon id="t23" points="309.2 547.4 392 246.5 500 511.5 309.2 547.4" style="fill: #fff;stroke: #000;stroke-linecap: round;stroke-linejoin: round;stroke-width: 3px"/>
  </g>
  <g id="grup4">
    <polygon id="t20" points="559 249.5 632.4 478 500 440.5 494 120.5 559 249.5" style="fill: #fff;stroke: #000;stroke-linecap: round;stroke-linejoin: round;stroke-width: 3px"/>
  </g>
  <g id="grup5">
    <polygon id="t13" points="309.2 547.4 533.5 626.5 633.5 476 487 436.5 309.2 547.4" style="fill: #fff;stroke: #000;stroke-linecap: round;stroke-linejoin: round;stroke-width: 3px"/>
  </g>
  <g id="grup6">
    <polygon id="t19" points="754.8 804.7 688 368.5 633.5 476.2 754.8 804.7" style="fill: #fff;stroke: #000;stroke-linecap: round;stroke-linejoin: round;stroke-width: 3px"/>
  </g>
  <g id="grup7">
    <polygon id="t14" points="633.5 476.2 533.5 626.5 584.5 732.5 710.7 688.5 633.5 476.2" style="fill: #fff;stroke: #000;stroke-linecap: round;stroke-linejoin: round;stroke-width: 3px"/>
  </g>
  <g id="grup8">
    <polygon id="t18" points="728 629.5 849.9 710.9 882.1 865.9 844.7 935.5 754.8 804.7 728 629.5" style="fill: #fff;stroke: #000;stroke-linecap: round;stroke-linejoin: round;stroke-width: 3px"/>
  </g>
  <g id="grup9">
    <polygon id="t5" points="576.7 784.3 844.7 935.5 754.8 804.7 710.7 688.5 584.5 732.5 576.7 784.3" style="fill: #fff;stroke: #000;stroke-linecap: round;stroke-linejoin: round;stroke-width: 3px"/>
  </g>
  <g id="grup10">
    <polygon id="t12" points="533.5 626.5 441.5 771.5 454.5 1088.4 543.4 922.2 576.8 784.4 584.5 732.5 533.5 626.5" style="fill: #fff;stroke: #000;stroke-miterlimit: 10;stroke-width: 3px"/>
  </g>
  <g id="grup11">
    <polygon id="t6" points="309.2 547.4 348.8 915.8 533.5 626.5 309.2 547.4" style="fill: #fff;stroke: #000;stroke-linecap: round;stroke-linejoin: round;stroke-width: 3px"/>
  </g>
  <g id="grup12">
    <polygon id="t24" points="286.7 338.2 348.8 915.8 235.1 716.8 286.7 338.2" style="fill: #fff;stroke: #000;stroke-linecap: round;stroke-linejoin: round;stroke-width: 3px"/>
  </g>
  <g id="grup13">
    <polygon id="t25" points="286.7 338.2 149.8 567.3 235.1 716.8 286.7 338.2" style="fill: #fff;stroke: #000;stroke-linecap: round;stroke-linejoin: round;stroke-width: 3px"/>
  </g>
  <g id="grup14">
    <polygon id="t26" points="130.9 735 149.8 567.3 274.3 785.9 130.9 735" style="fill: #fff;stroke: #000;stroke-linecap: round;stroke-linejoin: round;stroke-width: 3px"/>
  </g>
  <g id="grup15">
    <polygon id="t30" points="109.8 929.7 131.2 735.6 275.8 788 348.8 916.2 109.8 929.7" style="fill: #fff;stroke: #000;stroke-miterlimit: 10;stroke-width: 3px"/>
  </g>
  <g id="grup16">
    <polygon id="t11" points="348.8 915.8 312 1180.2 246 1020.4 109.7 929.9 348.8 915.8" style="fill: #fff;stroke: #000;stroke-linecap: round;stroke-linejoin: round;stroke-width: 3px"/>
  </g>
  <g id="grup17">
    <polygon id="t2" points="348.8 915.8 441.5 771.5 454.7 1089.1 348.8 915.8" style="fill: #fff;stroke: #000;stroke-linecap: round;stroke-linejoin: round;stroke-width: 3px"/>
  </g>
  <g id="grup18">
    <polygon id="t3" points="543.4 1008.3 678.8 975.6 576.7 784.3 543.4 922.6 543.4 1008.3" style="fill: #fff;stroke: #000;stroke-linecap: round;stroke-linejoin: round;stroke-width: 3px"/>
  </g>
  <g id="grup19">
    <polygon id="t4" points="576.7 784.3 678.8 975.6 844.7 935.5 576.7 784.3" style="fill: #fff;stroke: #000;stroke-linecap: round;stroke-linejoin: round;stroke-width: 3px"/>
  </g>
  <g id="grup20">
    <polygon id="t8" points="767.3 1175.4 844.7 935.5 543.4 1008.3 767.3 1175.4" style="fill: #fff;stroke: #000;stroke-linecap: round;stroke-linejoin: round;stroke-width: 3px"/>
  </g>
  <g id="grup21">
    <polygon id="t17" points="882.1 865.9 935.5 997.3 767.3 1175.4 844.7 935.5 882.1 865.9" style="fill: #fff;stroke: #000;stroke-linecap: round;stroke-linejoin: round;stroke-width: 3px"/>
  </g>
  <g id="grup22">
    <polygon id="t16" points="935.5 997.3 958.5 896.5 1021.5 1281.5 857.5 1281.5 935.5 997.3" style="fill: #fff;stroke: #000;stroke-linecap: round;stroke-linejoin: round;stroke-width: 3px"/>
  </g>
  <g id="grup23">
    <polygon id="t15" points="857.5 1281.5 770.8 1283 767.3 1175.4 935.5 997.3 857.5 1281.5" style="fill: #fff;stroke: #000;stroke-linecap: round;stroke-linejoin: round;stroke-width: 3px"/>
  </g>
  <g id="grup24">
    <polygon id="t10" points="676.8 1107.8 766.9 1175.2 771.3 1283 621.2 1280 676.8 1107.8" style="fill: #fff;stroke: #000;stroke-linecap: round;stroke-linejoin: round;stroke-width: 3px"/>
  </g>
  <g id="grup25">
    <polygon id="t31" points="543.4 1009 543.4 1280 621.2 1280 676.8 1107.8 543.4 1009" style="fill: #fff;stroke: #000;stroke-miterlimit: 10;stroke-width: 3px"/>
  </g>
  <g id="grup26">
    <polygon id="t9" points="353.1 1279.8 543.4 1279.8 543.4 922.6 353.1 1279.8" style="fill: #fff;stroke: #000;stroke-linecap: round;stroke-linejoin: round;stroke-width: 3px"/>
  </g>
  <g id="grup27">
    <polygon id="t7" points="348.8 915.8 312 1180.2 353.1 1279.8 454.7 1089.1 348.8 915.8" style="fill: #fff;stroke: #000;stroke-linecap: round;stroke-linejoin: round;stroke-width: 3px"/>
  </g>
  <g id="grup28">
    <polygon id="t27" points="246 1020.4 353.1 1279.8 135.7 1283 246 1020.4" style="fill: #fff;stroke: #000;stroke-linecap: round;stroke-linejoin: round;stroke-width: 3px"/>
  </g>
  <g id="grup29">
    <polygon id="t28" points="109.7 929.9 246 1020.4 135.7 1283 109.7 929.9" style="fill: #fff;stroke: #000;stroke-linecap: round;stroke-linejoin: round;stroke-width: 3px"/>
  </g>
  <g id="grup30">
    <polygon id="t1" points="1.5 1281.5 109.7 929.9 135.7 1283 1.5 1281.5" style="fill: #fff;stroke: #000;stroke-linecap: round;stroke-linejoin: round;stroke-width: 3px"/>
  </g>
  <g id="grup31">
    <polygon id="t29" points="38.5 878.5 1.5 1281.5 109.5 929.5 38.5 878.5" style="fill: #fff;stroke: #000;stroke-linecap: round;stroke-linejoin: round;stroke-width: 3px"/>
  </g>
</svg>
